<svg xmlns="http://www.w3.org/2000/svg" viewBox="0 0 67 67">
    <g transform="translate(0,67) scale(0.1,-0.1)" fill="#2563EB" stroke="none">
        <path d="M303 624 c-7 -31 -15 -38 -65 -58 l-56 -23 -32 20 c-29 18 -33 18
-47 4 -14 -14 -14 -18 4 -47 l20 -32 -23 -56 c-20 -50 -27 -58 -58 -65 -29 -7
-36 -14 -36 -33 0 -19 7 -24 36 -30 26 -5 38 -13 45 -33 5 -14 16 -39 24 -55
14 -26 14 -31 -6 -63 -20 -31 -20 -36 -6 -50 14 -14 19 -14 50 6 32 20 37 20
63 6 16 -8 41 -19 55 -24 20 -7 28 -19 33 -45 6 -29 11 -36 30 -36 19 0 26 7
33 36 7 31 15 38 65 58 l56 23 32 -20 c29 -18 33 -18 47 -4 14 14 14 18 -4 47
l-20 32 23 56 c20 50 27 58 58 65 29 7 36 14 36 33 0 19 -7 24 -36 30 -20 4
-38 14 -40 23 -3 9 -14 34 -24 57 -18 40 -18 41 2 73 19 29 19 34 5 48 -14 14
-19 14 -48 -5 -32 -20 -33 -20 -73 -2 -23 10 -48 21 -57 24 -9 2 -19 20 -23
40 -6 29 -11 36 -30 36 -19 0 -26 -7 -33 -36z m137 -128 c122 -80 114 -262
-13 -328 -149 -77 -317 55 -276 217 14 56 67 115 119 133 51 16 127 7 170 -22z"/>
        <path d="M230 335 c0 -77 4 -125 10 -125 6 0 10 25 10 55 0 83 20 84 89 6 46
-52 61 -62 81 -58 21 4 22 4 4 6 -13 0 -45 28 -79 67 l-58 65 54 55 c29 30 48
54 42 54 -6 0 -36 -27 -66 -60 -29 -33 -57 -60 -60 -60 -4 0 -7 27 -7 60 0 33
-4 60 -10 60 -6 0 -10 -48 -10 -125z"/>
    </g>
</svg>